<?xml version="1.0" encoding="UTF-8" standalone="no"?>
<!-- Uploaded to: SVG Repo, www.svgrepo.com, Generator: SVG Repo Mixer Tools -->

<svg
   version="1.1"
   id="Uploaded to svgrepo.com"
   width="800px"
   height="800px"
   viewBox="0 0 32 32"
   xml:space="preserve"
   sodipodi:docname="camp-svgrepo-com.svg"
   inkscape:version="1.2.1 (9c6d41e410, 2022-07-14)"
   xmlns:inkscape="http://www.inkscape.org/namespaces/inkscape"
   xmlns:sodipodi="http://sodipodi.sourceforge.net/DTD/sodipodi-0.dtd"
   xmlns="http://www.w3.org/2000/svg"
   xmlns:svg="http://www.w3.org/2000/svg"><defs
   id="defs9"><rect
     x="54.527751"
     y="249.26972"
     width="379.35735"
     height="576.43621"
     id="rect223" /></defs><sodipodi:namedview
   id="namedview7"
   pagecolor="#505050"
   bordercolor="#eeeeee"
   borderopacity="1"
   inkscape:showpageshadow="0"
   inkscape:pageopacity="0"
   inkscape:pagecheckerboard="0"
   inkscape:deskcolor="#505050"
   showgrid="false"
   inkscape:zoom="1.28375"
   inkscape:cx="209.15287"
   inkscape:cy="399.61052"
   inkscape:window-width="2560"
   inkscape:window-height="1346"
   inkscape:window-x="-11"
   inkscape:window-y="-11"
   inkscape:window-maximized="1"
   inkscape:current-layer="Uploaded to svgrepo.com" />
<style
   type="text/css"
   id="style2">
	.dashing_een{fill:#141414;}
	.st0{fill:#141414;}
</style>
<path
   class="dashing_een"
   d="m 21.991298,17.793982 -0.47045,0.887141 c -0.06519,0.122414 -0.244757,0.1805 -0.401573,0.130094 -0.156817,-0.05041 -0.231228,-0.191061 -0.166657,-0.313475 l 0.47045,-0.887141 c 0.06519,-0.122414 0.244757,-0.180501 0.401574,-0.130095 0.156817,0.05089 0.231228,0.191062 0.166656,0.313476 z m -1.343088,1.904377 c -0.156817,-0.05089 -0.337002,0.0072 -0.401574,0.130094 l -0.47045,0.887141 c -0.06519,0.122414 0.0092,0.26307 0.166656,0.313476 0.157432,0.05041 0.337002,-0.0072 0.401574,-0.130095 l 0.47045,-0.887141 c 0.06457,-0.122414 -0.0098,-0.26307 -0.166656,-0.313475 z m 2.99489,-3.41847 -0.47045,-0.887141 c -0.0492,-0.09313 -0.164811,-0.148337 -0.286574,-0.147377 -0.121764,-9.6e-4 -0.236763,0.05425 -0.286575,0.147377 l -0.47045,0.887141 c -0.06519,0.122414 0.0092,0.26259 0.166656,0.313476 0.156817,0.05089 0.337002,-0.0072 0.401574,-0.130095 l 0.188795,-0.355721 0.188795,0.356201 c 0.06519,0.122414 0.244757,0.180501 0.401573,0.130095 0.157432,-0.05089 0.231843,-0.191542 0.166656,-0.313956 z m 0.137753,1.514573 0.47045,0.887141 c 0.06519,0.122414 0.244757,0.1805 0.401574,0.130095 0.156816,-0.05089 0.231227,-0.191062 0.166656,-0.313476 l -0.47045,-0.887141 c -0.06519,-0.122414 -0.244757,-0.180501 -0.401574,-0.130095 -0.156816,0.05041 -0.231227,0.191062 -0.166656,0.313476 z m 1.177048,2.217372 0.47045,0.887141 c 0.06519,0.122414 0.244756,0.180501 0.401573,0.130095 0.156817,-0.05089 0.231228,-0.191062 0.166656,-0.313476 l -0.47045,-0.887141 c -0.06519,-0.122414 -0.244757,-0.1805 -0.401573,-0.130094 -0.157432,0.05088 -0.231843,0.191061 -0.166656,0.313475 z m 6.537717,3.24181 c 0,0.132495 -0.137753,0.240027 -0.307484,0.240027 H 14.584017 c -0.169731,0 -0.307484,-0.107532 -0.307484,-0.240027 0,-0.132495 0.137753,-0.240028 0.307484,-0.240028 h 1.025765 L 22.552763,10.089584 21.680125,8.4655589 c -0.0658,-0.122414 0.008,-0.26307 0.164811,-0.313956 0.157432,-0.05185 0.337002,0.0062 0.402189,0.128655 l 0.638951,1.188615 0.638951,-1.189576 c 0.06519,-0.122413 0.244142,-0.18098 0.402188,-0.128654 0.156817,0.05089 0.230613,0.191542 0.164812,0.313956 l -0.872639,1.6240251 6.942981,12.924992 h 1.025765 c 0.169731,0 0.307484,0.107533 0.307484,0.240028 z M 29.495744,23.013616 22.886076,10.709814 16.276407,23.013616 h 2.279684 l 0.396039,-0.746005 c 0.06519,-0.122414 0.244757,-0.1805 0.401573,-0.130095 0.156817,0.05089 0.231228,0.191062 0.166657,0.313476 l -0.298875,0.562624 h 7.329181 l -0.298259,-0.562624 c -0.06519,-0.122414 0.0092,-0.26307 0.166656,-0.313476 0.156817,-0.05088 0.337002,0.0072 0.401574,0.130095 l 0.395423,0.746005 z"
   id="path4"
   style="stroke-width:0.54334" />
<text
   xml:space="preserve"
   transform="matrix(0.04,0,0,0.04,-1.7137293,-5.0788705)"
   id="text221"
   style="font-style:normal;font-variant:normal;font-weight:bold;font-stretch:normal;font-size:506.667px;line-height:1.25;font-family:sans-serif;-inkscape-font-specification:'sans-serif, Bold';font-variant-ligatures:normal;font-variant-caps:normal;font-variant-numeric:normal;font-variant-east-asian:normal;white-space:pre;shape-inside:url(#rect223);fill:#000000;fill-opacity:1;stroke:none"><tspan
     x="54.527344"
     y="710.27325"
     id="tspan285">K</tspan></text></svg>
